<svg width="53" height="53" viewBox="0 0 53 53" fill="none" xmlns="http://www.w3.org/2000/svg">
  <path d="M46.1439 8.67549C43.5525 6.08719 40.4733 4.04561 37.0869 2.67057C33.7005 1.29552 30.0752 0.614712 26.4236 0.668089C19.569 0.650851 12.9882 3.37339 8.12908 8.23678C3.26996 13.1002 0.530508 19.706 0.513371 26.6011C0.496235 33.4963 3.20282 40.1158 8.0377 45.0036C12.8726 49.8914 19.4397 52.647 26.2944 52.6642C27.7715 52.6895 29.2151 52.2206 30.3986 51.3313C31.5821 50.442 32.4385 49.1825 32.8334 47.7506C33.0851 46.7165 33.0825 45.6363 32.8258 44.6035C32.5691 43.5706 32.066 42.6163 31.3602 41.823C31.197 41.6362 31.0905 41.4062 31.0533 41.1603C31.0162 40.9144 31.05 40.6629 31.1506 40.4357C31.2513 40.2086 31.4147 40.0152 31.6213 39.8786C31.8279 39.742 32.0692 39.668 32.3165 39.6652H36.581C40.5947 39.6841 44.4669 38.1748 47.4201 35.4405C50.3732 32.7063 52.1887 28.9494 52.5019 24.9243C52.5981 21.9231 52.0837 18.9338 50.9904 16.1397C49.8971 13.3456 48.2479 10.8056 46.1439 8.67549ZM13.3199 33.7896C12.6853 34.2234 11.937 34.4581 11.1698 34.4639C10.4025 34.4697 9.65084 34.2463 9.00986 33.8221C8.36888 33.3979 7.86745 32.7919 7.56906 32.0809C7.27067 31.3698 7.18874 30.5857 7.33363 29.8278C7.47853 29.0699 7.84374 28.3723 8.38303 27.8233C8.92231 27.2743 9.61141 26.8986 10.3631 26.7438C11.1148 26.589 11.8952 26.662 12.6056 26.9537C13.316 27.2453 13.9244 27.7424 14.3537 28.382C14.6414 28.8045 14.843 29.2802 14.9468 29.7815C15.0506 30.2828 15.0545 30.7999 14.9584 31.3028C14.8623 31.8057 14.6679 32.2844 14.3867 32.7112C14.1055 33.1381 13.7429 33.5046 13.3199 33.7896ZM17.0934 19.5167C16.7256 20.2018 16.1624 20.7605 15.4763 21.1208C14.7902 21.4812 14.0125 21.6267 13.2435 21.5386C12.4744 21.4505 11.7492 21.1329 11.1611 20.6267C10.5731 20.1204 10.1492 19.4487 9.94393 18.698C9.73869 17.9472 9.76155 17.1519 10.0096 16.4144C10.2576 15.6769 10.7194 15.0309 11.3355 14.5596C11.9517 14.0884 12.6939 13.8135 13.4667 13.7702C14.2396 13.727 15.0076 13.9175 15.6719 14.3171C16.529 14.8327 17.1553 15.6612 17.4201 16.6299C17.6849 17.5986 17.5679 18.6327 17.0934 19.5167ZM24.0717 13.6671C23.3049 13.6671 22.5554 13.4384 21.9178 13.0099C21.2803 12.5814 20.7834 11.9723 20.49 11.2598C20.1965 10.5472 20.1197 9.76308 20.2693 9.00661C20.4189 8.25014 20.7882 7.55528 21.3303 7.0099C21.8725 6.46451 22.5633 6.0931 23.3154 5.94263C24.0674 5.79216 24.8469 5.86939 25.5553 6.16455C26.2637 6.45971 26.8692 6.95954 27.2952 7.60085C27.7212 8.24215 27.9485 8.99612 27.9485 9.76741C27.9485 10.2795 27.8483 10.7866 27.6534 11.2598C27.4586 11.7329 27.173 12.1628 26.813 12.5249C26.453 12.887 26.0257 13.1743 25.5553 13.3703C25.0849 13.5662 24.5808 13.6671 24.0717 13.6671ZM38.9329 15.747C38.2687 16.1466 37.5007 16.337 36.7278 16.2938C35.955 16.2506 35.2127 15.9756 34.5966 15.5044C33.9805 15.0332 33.5187 14.3872 33.2707 13.6496C33.0226 12.9121 32.9998 12.1168 33.205 11.3661C33.4103 10.6154 33.8342 9.94363 34.4222 9.43737C35.0103 8.93111 35.7355 8.6135 36.5046 8.52543C37.2736 8.43736 38.0513 8.58287 38.7374 8.94322C39.4235 9.30356 39.9867 9.86225 40.3545 10.5473C40.829 11.4314 40.946 12.4655 40.6812 13.4341C40.4164 14.4028 39.7901 15.2313 38.9329 15.747Z" fill="black" />
</svg>

