<svg width="53" height="46" viewBox="0 0 53 46" fill="none" xmlns="http://www.w3.org/2000/svg">
  <path d="M31.1615 3.52002L51.7052 37.8674C53.2144 40.3918 52.3245 43.6229 49.7174 45.0836C48.8865 45.5492 47.9446 45.7939 46.9838 45.7939H5.8953C2.88165 45.7939 0.440002 43.4302 0.440002 40.5135C0.440002 39.5846 0.692913 38.671 1.17392 37.8662L21.7176 3.52002C23.2279 0.996821 26.5654 0.13527 29.1737 1.59601C29.9929 2.05278 30.6783 2.71612 31.1615 3.52002ZM26.4401 41.0666C27.3805 41.0666 28.2823 40.693 28.9472 40.0281C29.6121 39.3632 29.9856 38.4614 29.9856 37.5211C29.9856 36.5808 29.6121 35.679 28.9472 35.0141C28.2823 34.3492 27.3805 33.9756 26.4401 33.9756C25.4998 33.9756 24.598 34.3492 23.9331 35.0141C23.2682 35.679 22.8947 36.5808 22.8947 37.5211C22.8947 38.4614 23.2682 39.3632 23.9331 40.0281C24.598 40.693 25.4998 41.0666 26.4401 41.0666ZM26.4401 11.521C25.8483 11.5209 25.2632 11.6467 24.7237 11.8901C24.1842 12.1335 23.7026 12.4888 23.311 12.9326C22.9193 13.3763 22.6266 13.8983 22.4521 14.4638C22.2776 15.0294 22.2254 15.6256 22.299 16.2128L23.7834 28.0842C23.8654 28.731 24.1805 29.3256 24.6696 29.7566C25.1587 30.1876 25.7882 30.4254 26.4401 30.4254C27.0921 30.4254 27.7216 30.1876 28.2107 29.7566C28.6998 29.3256 29.0149 28.731 29.0969 28.0842L30.5813 16.2116C30.6547 15.6245 30.6023 15.0284 30.4278 14.463C30.2532 13.8976 29.9604 13.3758 29.5688 12.9322C29.1772 12.4886 28.6957 12.1333 28.1563 11.89C27.6169 11.6467 27.0319 11.5209 26.4401 11.521Z" fill="black" />
</svg>
